<?xml version="1.0" encoding="UTF-8" standalone="no"?>
<svg
	xmlns="http://www.w3.org/2000/svg"
	version="1.0"
	width="360"
	height="93">
<path
	d="m 255.238,54.106 c -1.513,-0.268 0.734,-1.051 1.407,-1.498 1.66,-1.101 3.072,-2.575 4.358,-4.078 1.275,-1.491 3.038,-4.258 1.274,-6.023 -3.677,-3.68 -11.606,6.906 -12.577,9.442 -2.466,6.441 4.849,5.55 8.386,4.043 3.447,-1.468 6.7,-3.324 9.808,-5.412 1.18,-0.792 3.352,-2.04 3.352,-3.722 0,-3.021 -10.445,4.516 -9.053,8.094 2.228,5.723 12.152,-0.279 14.958,-2.151 2.712,-1.809 10.474,-8.814 4.82,-12.035 -4.539,-2.585 -8.744,5.766 -10.331,8.635 -4.129,7.465 -7.301,16.189 -8.141,24.704 -0.306,3.101 -0.405,6.147 -1.156,9.193 -0.64,2.595 -1.258,2.527 -1.141,0.032 0.235,-5.012 3.509,-10.331 5.896,-14.558 3.018,-5.34 6.797,-10.268 11.36,-14.37 0.758,-0.682 2.716,-2.886 2.276,-1.284 -0.333,1.216 -0.916,2.377 -1.416,3.53 -0.865,1.996 -1.381,5.477 1.624,2.892 3.091,-2.659 5.573,-6.193 7.905,-9.51 1.639,-2.33 4.598,-5.911 4.741,-8.945 0.249,-5.28 -10.164,6.199 -10.577,6.747 -6.172,8.202 -10.642,18.186 -11.895,28.426 -0.141,1.145 -1.109,6.508 0.736,7.016 1.751,0.481 4.258,-4.792 4.975,-5.651 4.627,-5.552 10.443,-10.514 15.663,-15.496 6.148,-5.868 13.965,-10.723 19.003,-17.604 2.026,-2.769 1.73,-6.647 -2.01,-7.5 -3.817,-0.87 -9.371,2.55 -10.687,6.116 -2.185,5.924 4.467,10.907 8.349,14.318 1.181,1.038 2.352,2.074 3.473,3.178 0.626,0.621 1.173,1.308 1.639,2.061 2.807,4.283 -0.739,2.146 -0.565,1.559 0.854,-2.898 2.79,-5.658 4.422,-8.158 4.213,-6.453 10.07,-13.846 18.25,-14.652 4.003,-0.395 7.944,1.347 11.689,2.492 3.654,1.117 7.246,1.196 10.977,0.438 0.948,-0.193 0.546,-1.639 -0.398,-1.447 -10.028,2.038 -19.217,-6.293 -28.95,-1.063 -7.183,3.858 -12.733,12.318 -16.327,19.393 -0.517,1.017 -1.919,3.3 -1.221,4.494 0.552,0.944 2.696,3.031 3.705,1.239 1.313,-2.333 0.022,-4.804 -1.472,-6.669 -3.795,-4.736 -10.383,-7.596 -12.48,-13.65 -1.116,-3.221 2.427,-5.927 4.769,-7.202 2.856,-1.557 8.365,-1.333 6.05,3.474 -2.626,5.454 -9.501,9.313 -13.923,13.195 -4.355,3.823 -8.482,7.91 -12.592,11.993 -3.061,3.041 -6.696,6.015 -9.287,9.479 -0.63,0.843 -1.225,1.696 -1.803,2.576 -0.154,0.238 -0.309,0.477 -0.463,0.714 -0.764,1.146 -0.82,1.158 -0.172,0.036 -0.185,-2.545 0.156,-5.157 0.612,-7.651 1.111,-6.09 3.564,-11.951 6.467,-17.383 2.89,-5.41 6.783,-10.62 11.758,-14.277 1.682,-1.235 -0.514,2.459 -0.802,2.987 -1.271,2.327 -2.814,4.511 -4.37,6.651 -1.597,2.198 -3.355,4.271 -5.231,6.232 -0.485,0.508 -1.003,1.013 -1.566,1.437 0.625,-0.47 0.275,1.227 0.688,-0.053 0.635,-1.96 1.717,-3.745 2.264,-5.741 1.467,-5.351 -6.466,1.661 -6.913,2.093 -6.989,6.748 -12.695,16.386 -15.254,25.766 -0.5,1.835 0.006,9.348 2.775,5.047 2.057,-3.193 1.877,-8.349 2.104,-11.938 0.315,-4.953 2.019,-9.918 3.709,-14.542 1.647,-4.505 3.725,-8.894 6.323,-12.929 1.04,-1.615 2.271,-3.195 3.844,-4.324 0.828,-0.594 1.708,-0.773 2.563,-0.045 1.908,1.625 0.337,4.058 -0.756,5.462 -2.643,3.394 -7.072,5.84 -11.032,7.333 -0.809,0.305 -1.66,0.518 -2.518,0.618 -3.484,0.41 -1.598,-4.243 -0.522,-5.427 0.864,-0.951 2.428,-1.969 2.938,-2.979 -0.351,0.695 -1.234,1.18 -1.833,1.612 -2.956,2.133 -6.197,3.927 -9.508,5.439 -1.817,0.831 -4.126,1.768 -6.169,1.487 -4.235,-0.582 2.32,-8.266 3.188,-9.078 1.295,-1.212 2.869,-2.209 4.51,-2.878 3.473,-1.415 -1.062,5.031 -1.371,5.354 -1.59,1.653 -5.024,2.553 -6.132,4.383 -0.182,0.301 -0.105,0.658 0.117,0.909 0.631,0.709 1.583,0.893 2.489,1.054 0.947,0.165 1.351,-1.281 0.4,-1.45 l 0,0 z M 173.822,33.76 c 4.162,-2.075 8.265,-5.148 10.493,-9.3 2.694,-5.019 -1.194,-10.135 -5.817,-12.046 -8.572,-3.543 -18.457,-2.391 -27.272,-0.44 -9.318,2.062 -18.484,6.224 -25.737,12.466 -5.227,4.499 -8.54,10.752 -7.182,17.704 1.627,8.333 9.3,13.682 13.441,20.563 1.795,2.982 -9.11,5.143 -11.068,5.705 -1.923,0.553 -7.057,2.315 -7.543,-1.45 -0.41,-3.178 1.821,-5.576 4.248,-7.17 3.903,-2.565 8.844,-3.76 13.222,-5.263 5.349,-1.837 10.54,-3.945 15.479,-6.717 -0.253,-0.432 -0.505,-0.863 -0.758,-1.295 -3.737,2.605 -23.313,14.725 -17.991,20.283 2.13,2.225 6.221,1.369 8.761,0.631 7.274,-2.114 13.61,-7.46 19.123,-12.42 9.227,-8.302 18.345,-18.31 24.361,-29.24 1.066,-1.937 4.33,-8.718 -0.071,-9.264 -5.612,-0.696 -11.944,6.308 -15.377,9.768 -7.685,7.745 -14.699,17.507 -18.826,27.629 -1.968,4.828 -0.752,9.166 5.01,6.894 7.246,-2.857 13.75,-9.697 17.849,-16.129 0.452,-0.71 -0.635,-1.574 -1.178,-0.909 -4.516,5.533 -10.165,11.505 -12.908,18.154 -0.628,1.522 0.474,2.593 1.968,1.872 4.887,-2.355 8.703,-6.808 11.849,-11.131 -0.432,-0.253 -0.863,-0.505 -1.295,-0.758 -1.094,1.711 -5.369,7.368 -3.674,9.496 2.479,3.113 8.18,-4.534 8.814,-6.681 -0.457,0.06 -0.914,0.119 -1.371,0.18 1.888,3.795 5.944,2.761 8.837,0.907 -0.304,-0.393 -0.606,-0.785 -0.909,-1.178 -1.975,2.042 -5.55,5.584 -4.503,8.716 0.743,2.219 4.896,0.906 6.249,0.444 4.817,-1.647 8.535,-5.585 11.054,-9.864 1.226,-2.081 5.053,-9.87 1.607,-11.807 -5.63,-3.163 -15.121,7.583 -15.905,12.471 -1.908,11.886 13.211,3.95 17.487,1.218 -0.377,-0.216 -0.753,-0.432 -1.129,-0.647 0.203,9.948 8.782,-0.756 11.092,-3.775 -0.432,-0.253 -0.863,-0.505 -1.295,-0.758 -2.006,2.783 -8.904,11.011 -2.484,12.342 3.475,0.72 4.419,-5.223 5.402,-7.237 1.411,-2.89 3.304,-5.741 5.894,-7.69 0.482,-0.234 0.965,-0.468 1.447,-0.702 3.493,3.24 3.664,5.631 0.513,7.174 -0.984,0.681 -3.653,2.274 -4.897,1.595 -0.453,-0.248 -1.192,0.053 -1.129,0.647 0.545,5.067 10.437,1.191 12.459,0.446 4.453,-1.641 8.789,-4.117 11.555,-8.067 0.834,-1.193 1.592,-3.699 -0.507,-3.994 -4.138,-0.581 -14.002,9.891 -11.063,14.254 4.694,6.967 15.209,-8.394 16.959,-11.201 0.515,-0.826 -0.771,-1.563 -1.295,-0.758 -0.957,1.471 -6.489,9.105 -3.8,10.681 3.838,2.248 11.435,-7.68 13.326,-10.091 -0.393,-0.303 -0.785,-0.605 -1.178,-0.909 -1.492,2.137 -8.129,10.457 -5.448,13.139 3.816,3.815 11.742,-8.024 13.206,-10.465 0.499,-0.832 -0.798,-1.586 -1.295,-0.758 -0.747,1.246 -1.586,2.433 -2.444,3.604 -1.107,1.511 -2.367,2.871 -3.714,4.165 -0.288,0.277 -5.364,3.937 -4.474,0.766 0.967,-3.443 3.433,-6.783 5.464,-9.692 0.485,-0.695 -0.652,-1.579 -1.178,-0.909 -2.792,3.558 -6.036,7.071 -9.966,9.357 -2.399,1.396 0.701,-4.653 1.021,-5.22 0.558,-0.988 1.155,-1.958 1.774,-2.909 -0.432,-0.253 -0.863,-0.505 -1.295,-0.758 -2.349,3.768 -7.721,12.709 -13.405,11.907 -5.181,-0.731 6.199,-11.572 7.306,-12.255 2.659,-1.641 -0.943,3.27 -1.641,3.927 -2.729,2.573 -6.394,4.036 -9.843,5.307 -1.217,0.448 -8.768,2.83 -9.025,0.435 -0.376,0.216 -0.752,0.432 -1.129,0.647 2.835,1.55 8.116,-2.063 9.431,-4.389 1.73,-3.061 0.771,-8.037 -3.87,-7.258 -4.995,0.838 -8.062,6.925 -9.915,11.055 -0.336,0.748 -0.605,1.517 -0.838,2.302 -3.247,1.755 -4.266,1.593 -3.058,-0.488 0.363,-0.847 0.844,-1.649 1.298,-2.448 0.941,-1.654 2.018,-3.248 3.131,-4.791 0.572,-0.795 -0.721,-1.508 -1.295,-0.758 -1.245,1.628 -8.176,10.444 -8.297,4.533 -0.011,-0.548 -0.636,-0.963 -1.129,-0.647 -3.32,2.122 -15.757,9.97 -15.321,0.879 0.251,-5.245 6.763,-10.175 11.217,-11.922 5.329,-2.091 1.769,6.781 0.981,8.533 -1.654,3.679 -4.503,6.721 -7.856,8.898 -1.893,1.229 -4.74,2.559 -7.073,2.035 -1.802,-0.404 3.296,-6.64 3.882,-7.246 0.581,-0.602 -0.175,-1.648 -0.909,-1.178 -2.183,1.398 -5.413,2.387 -6.784,-0.37 -0.301,-0.604 -1.197,-0.408 -1.371,0.18 -0.231,0.786 -0.646,1.479 -1.068,2.176 -1.014,1.674 -6.128,5.559 -4.225,1.316 0.803,-1.789 1.84,-3.501 2.895,-5.151 0.53,-0.83 -0.738,-1.523 -1.295,-0.758 -2.149,2.954 -4.638,5.662 -7.381,8.069 -1.141,1.002 -2.634,2.063 -4.105,2.571 0.539,-0.187 0.283,0.008 0.719,-0.902 0.589,-1.234 1.388,-2.382 2.143,-3.517 3.075,-4.622 6.563,-9 10.072,-13.299 -0.393,-0.303 -0.785,-0.605 -1.178,-0.909 -3.684,5.78 -8.923,10.854 -14.817,14.353 -1.124,0.668 -5.317,3.119 -6.181,0.993 -1.269,-3.124 2.486,-8.522 3.866,-11.011 5.542,-9.99 12.886,-19.805 22.031,-26.78 1.703,-1.299 5.637,-4.455 7.985,-3.327 2.429,1.166 -2.466,8.643 -3.173,9.792 -6.597,10.719 -15.904,20.537 -25.462,28.684 -5.142,4.383 -11.85,9.484 -18.874,10.053 -1.296,0.104 -2.834,-0.028 -3.851,-0.927 -1.88,-1.662 1.759,-4.814 2.823,-5.914 4.403,-4.549 9.683,-8.4 14.865,-12.014 0.783,-0.546 0.098,-1.775 -0.758,-1.295 -8.837,4.96 -18.826,6.85 -27.77,11.442 -3.049,1.565 -9.1,8.071 -4.985,11.647 4.144,3.601 13.382,-1.181 17.596,-2.544 4.061,-1.313 3.95,-4.051 1.524,-7.051 -5.837,-7.222 -14.697,-15.726 -11.466,-25.855 3.328,-10.435 16.998,-16.342 26.437,-19.391 9.831,-3.175 25.817,-6.23 34.609,1.151 7.267,6.1 -2.931,13.915 -8.21,16.548 -0.864,0.429 -0.104,1.723 0.759,1.293 l 0,0 z m -70.943,22.879 c 3.833,-4.469 8.831,-11.104 7.464,-17.339 -0.903,-4.119 -7.916,0.853 -9.24,1.787 -6.166,4.354 -11.678,10.252 -15.58,16.709 -1.641,2.716 -4.94,9.682 -0.809,11.88 3.705,1.971 9.521,-3.643 11.948,-5.688 6.838,-5.763 12.75,-12.729 18.128,-19.843 5.368,-7.101 9.183,-14.462 12.192,-22.819 1.065,-2.958 1.672,-7.938 -2.373,-4.028 -6.651,6.428 -12.255,14.698 -17.383,22.349 -4.35,6.487 -9.775,14.577 -10.624,22.589 -0.563,5.312 2.064,8.757 7.594,8.994 4.366,0.188 8.588,-3.763 10.92,-7.075 0.559,-0.793 -0.743,-1.542 -1.295,-0.758 -1.904,2.705 -4.584,4.939 -7.72,6.025 -8.406,2.911 -8.577,-6.117 -7.005,-11.175 3.729,-11.996 12.6,-22.899 20.311,-32.547 1.216,-1.521 7.233,-7 7.185,-8.554 0.118,3.83 -3.012,9.218 -4.516,12.566 -3.42,7.614 -8.927,14.471 -14.287,20.784 C 102.718,56.47 97.075,62.6 90.4,66.807 c -1.559,0.982 -5.03,3.002 -5.909,0.281 -1.079,-3.343 1.617,-7.47 3.315,-10.122 4.088,-6.385 10.168,-12.396 16.674,-16.302 1.108,-0.665 2.357,-1.313 3.668,-1.397 2.648,-0.172 -0.291,7 -0.712,7.905 -1.406,3.018 -3.455,5.884 -5.618,8.405 -0.626,0.731 0.43,1.797 1.061,1.062 l 0,0 z M 45.727,18.334 c -3.984,-0.581 -7.787,7.533 -9.14,9.919 -3.66,6.451 -7.136,13.005 -10.839,19.436 -3.949,6.857 -7.942,13.696 -12.134,20.409 -1.038,1.66 -2.043,3.448 -3.325,4.938 -0.399,0.464 0.83,1.007 1.011,0.404 0.125,-0.413 0.311,-0.823 0.479,-1.218 0.548,-1.283 1.157,-2.543 1.747,-3.808 C 20.704,53.015 28.261,37.705 36.78,22.999 39.54,18.233 42.738,11.2 47.522,8.089 c 2.267,-1.474 0.52,12.69 0.35,13.676 -2.352,13.627 -5.941,28.251 -12.226,40.645 -0.639,1.261 -1.622,3.55 -3.07,4.077 -1.737,0.633 -2.189,-5.447 -2.191,-6.121 -0.008,-2.915 1.014,-5.883 2.15,-8.525 1.294,-3.011 10.1,-15.084 12.33,-7.086 1.604,5.751 -2.027,13.255 -4.83,18.005 0.432,0.253 0.863,0.505 1.295,0.758 1.3,-2.689 2.688,-5.337 4.125,-7.954 1.077,-1.961 2.222,-3.882 3.463,-5.742 0.676,-1.016 2.815,-4.212 2.335,-1.18 -0.282,1.783 -5.134,13.726 -2.591,14.426 2.251,0.619 5.554,-5.075 6.784,-6.369 1.217,-1.279 0.016,0.377 -0.176,0.99 -0.601,1.919 -1.311,3.736 -1.69,5.719 -0.138,0.719 -0.298,2.198 0.34,2.815 3.293,3.181 10.403,-12.486 13.414,-12.911 -0.308,-0.308 -0.615,-0.615 -0.923,-0.923 -0.488,2.104 -6.756,10.381 -3.357,12.044 1.987,0.972 4.899,-2.411 5.939,-3.54 2.955,-3.206 5.101,-7.471 5.563,-11.812 0.089,-0.837 -0.222,-3.038 -1.612,-2.351 -1.805,0.894 -2.2,3.883 -2.167,5.639 0.103,5.572 6.237,2.189 8.393,0.522 5.952,-4.605 11.195,-10.308 15.732,-16.293 0.758,-1 6.099,-7.81 2.278,-8.402 -3.936,-0.611 -8.669,7.138 -10.542,9.633 -4.515,6.015 -9.031,13 -10.871,20.383 -1.074,4.311 0.964,7.845 5.761,7.307 4.893,-0.549 9.702,-4.434 13.276,-7.601 0.726,-0.643 -0.339,-1.699 -1.061,-1.061 -3.335,2.955 -7.264,5.757 -11.577,7.013 -8.701,2.535 -3.868,-8.962 -2.315,-12.195 2.604,-5.421 6.017,-10.527 9.737,-15.24 1.35,-1.71 2.804,-3.34 4.382,-4.843 1.261,-1.2 3.869,-2.936 2.382,0.057 -2.232,4.494 -6.036,8.404 -9.431,12.03 -3.373,3.602 -7.081,7.426 -11.422,9.855 -3.522,1.972 -3.47,-2.718 -2.361,-4.912 -0.825,1.634 -0.888,4.126 -1.703,5.908 -1.047,2.288 -2.62,4.346 -4.313,6.183 -0.608,0.66 -3.839,3.173 -3.167,0.738 0.43,-1.557 1.199,-3.029 1.896,-4.479 0.637,-1.324 1.672,-2.739 2.008,-4.186 0.141,-0.605 -0.36,-1.002 -0.923,-0.922 -0.907,0.128 -1.988,1.83 -2.536,2.422 -2.058,2.22 -4.046,4.507 -5.98,6.836 -0.636,0.767 -1.242,1.554 -1.837,2.352 -2.142,2.868 -1.34,-0.809 -0.94,-2.272 0.498,-1.82 2.142,-4.302 1.601,-6.284 -0.068,-0.247 -0.272,-0.46 -0.524,-0.523 -1.531,-0.386 -3.017,1.962 -3.839,2.866 -1.282,1.411 -2.433,3.211 -3.985,4.339 0.583,-0.424 0.639,-0.95 0.945,-2.17 0.955,-3.799 3.895,-9.079 2.92,-13.062 -0.784,-3.202 -4.672,2.031 -5.138,2.695 -2.978,4.25 -5.333,9.033 -7.587,13.696 -0.417,0.861 0.798,1.6 1.295,0.758 2.435,-4.127 9.395,-18.139 3.284,-22.202 -5.825,-3.874 -12.372,6.955 -13.93,11.063 -1.368,3.608 -2.159,7.276 -1.547,11.126 0.226,1.42 1.395,4.454 3.226,4.489 3.116,0.061 5.073,-5.742 6.017,-7.875 C 44.303,46.731 48.189,31.613 50.089,17.122 50.363,15.029 51.793,7.979 49.095,6.598 46.46,5.249 43.601,9.82 42.387,11.438 33.735,22.955 27.451,36.6 21.043,49.429 20.111,51.294 8.394,73.942 10.288,74.511 c 1.541,0.464 3.708,-4.212 4.25,-5.067 3.615,-5.701 7.013,-11.544 10.409,-17.377 3.491,-5.997 6.937,-12.021 10.273,-18.105 1.826,-3.328 3.537,-6.701 5.678,-9.847 0.647,-0.951 3.285,-4.501 4.431,-4.333 0.945,0.137 1.353,-1.308 0.398,-1.448 l 0,0 z"
	style="fill:#231f20" />
</svg>